<?xml version="1.0" encoding="UTF-8" standalone="no"?>
<!-- Created with Inkscape (http://www.inkscape.org/) -->

<svg
   xmlns:dc="http://purl.org/dc/elements/1.1/"
   xmlns:cc="http://creativecommons.org/ns#"
   xmlns:rdf="http://www.w3.org/1999/02/22-rdf-syntax-ns#"
   xmlns:svg="http://www.w3.org/2000/svg"
   xmlns="http://www.w3.org/2000/svg"
   xmlns:sodipodi="http://sodipodi.sourceforge.net/DTD/sodipodi-0.dtd"
   xmlns:inkscape="http://www.inkscape.org/namespaces/inkscape"
   width="121.05409mm"
   height="97.42234mm"
   viewBox="0 0 428.93182 345.19727"
   id="svg2"
   version="1.1"
   inkscape:version="0.91 r13725"
   sodipodi:docname="speaky-white-1.svg"
   inkscape:export-filename="C:\Git\speaky-miniplayer\resources\icon.png"
   inkscape:export-xdpi="50.09"
   inkscape:export-ydpi="50.09">
  <defs
     id="defs4">
    <filter
       style="color-interpolation-filters:sRGB"
       inkscape:label="Drop Shadow"
       id="filter5481">
      <feFlood
         flood-opacity="0.498039"
         flood-color="rgb(0,0,0)"
         result="flood"
         id="feFlood5483" />
      <feComposite
         in="flood"
         in2="SourceGraphic"
         operator="in"
         result="composite1"
         id="feComposite5485" />
      <feGaussianBlur
         in="composite1"
         stdDeviation="13"
         result="blur"
         id="feGaussianBlur5487" />
      <feOffset
         dx="-1.3"
         dy="0.3"
         result="offset"
         id="feOffset5489" />
      <feComposite
         in="SourceGraphic"
         in2="offset"
         operator="over"
         result="composite2"
         id="feComposite5491" />
    </filter>
    <filter
       style="color-interpolation-filters:sRGB"
       inkscape:label="Drop Shadow"
       id="filter5493">
      <feFlood
         flood-opacity="0.498039"
         flood-color="rgb(0,0,0)"
         result="flood"
         id="feFlood5495" />
      <feComposite
         in="flood"
         in2="SourceGraphic"
         operator="in"
         result="composite1"
         id="feComposite5497" />
      <feGaussianBlur
         in="composite1"
         stdDeviation="13"
         result="blur"
         id="feGaussianBlur5499" />
      <feOffset
         dx="-1.3"
         dy="0.3"
         result="offset"
         id="feOffset5501" />
      <feComposite
         in="SourceGraphic"
         in2="offset"
         operator="over"
         result="composite2"
         id="feComposite5503" />
    </filter>
  </defs>
  <sodipodi:namedview
     id="base"
     pagecolor="#ffffff"
     bordercolor="#666666"
     borderopacity="1.0"
     inkscape:pageopacity="0.0"
     inkscape:pageshadow="2"
     inkscape:zoom="0.7"
     inkscape:cx="253.51661"
     inkscape:cy="112.4347"
     inkscape:document-units="px"
     inkscape:current-layer="layer1"
     showgrid="false"
     inkscape:window-width="1190"
     inkscape:window-height="768"
     inkscape:window-x="1146"
     inkscape:window-y="100"
     inkscape:window-maximized="1"
     fit-margin-top="0"
     fit-margin-left="0"
     fit-margin-right="0"
     fit-margin-bottom="0" />
  <metadata
     id="metadata7">
    <rdf:RDF>
      <cc:Work
         rdf:about="">
        <dc:format>image/svg+xml</dc:format>
        <dc:type
           rdf:resource="http://purl.org/dc/dcmitype/StillImage" />
        <dc:title></dc:title>
      </cc:Work>
    </rdf:RDF>
  </metadata>
  <g
     inkscape:label="Layer 1"
     inkscape:groupmode="layer"
     id="layer1"
     transform="translate(-173.61023,-158.09518)">
    <path
       style="fill-opacity:1;fill-rule:nonzero;stroke:none;stroke-width:1.60099995;stroke-miterlimit:4;stroke-dasharray:none;stroke-opacity:1"
       d="m 209.63477,48.679688 c -6.15941,0 -11.39401,3.813199 -13.84571,9.185546 -0.21233,-0.0012 -0.42432,-0.01304 -0.63672,-0.01172 -2.62094,0.02416 -5.24407,0.294306 -7.83398,0.818359 -16.66694,3.372481 -30.49968,18.014983 -30.57227,35.201172 l -44.14843,0 c -53.072746,0 -95.796879,42.726095 -95.796879,95.798835 l 0,108.40624 c 0,53.07273 42.724133,95.79883 95.796879,95.79883 l 168.29296,0 c 52.34012,0 94.61427,-41.5551 95.77149,-93.60742 10.36082,9.37232 12.06996,26.51443 4.94922,39.21289 -2.31771,4.13323 -5.46981,7.85779 -9.18945,10.89453 a 8.7128712,8.7128712 0 1 0 11.01953,13.49805 c 5.37325,-4.38678 9.94291,-9.75911 13.36914,-15.86914 12.81123,-22.84639 7.03299,-55.02662 -18.42969,-67.40039 a 8.7128712,8.7128712 0 0 0 -1.69141,-0.63867 l 0,-90.29492 c 0,-53.07274 -42.72609,-95.798835 -95.79883,-95.798835 l -110.51953,0 c 0.17638,-10.394842 9.01575,-19.724707 19.64258,-21.875 1.88421,-0.381256 3.82174,-0.545058 5.76367,-0.529297 2.44594,5.388662 7.68674,9.21681 13.85743,9.216797 8.54758,0 15.33593,-7.327309 15.33593,-16.003906 0,-8.676585 -6.78835,-16.001954 -15.33593,-16.001953 z m 62.31054,80.134762 c 37.68705,0 68.55078,30.29497 68.55078,67.60743 0,37.31245 -30.86373,67.60937 -68.55078,67.60937 -37.68703,0 -68.55273,-30.29692 -68.55273,-67.60937 0,-37.31246 30.8657,-67.60743 68.55273,-67.60743 z m -155.27539,12.25586 c 34.7954,0 63.36719,27.71765 63.36719,61.95117 0,34.23353 -28.57179,61.95313 -63.36719,61.95313 -34.795394,0 -63.369139,-27.7196 -63.369139,-61.95313 0,-34.23352 28.573745,-61.95117 63.369139,-61.95117 z m 155.27539,4.81836 c -28.60341,0 -51.47851,22.59666 -51.47851,50.53321 0,27.93654 22.8751,50.53515 51.47851,50.53515 28.60343,0 51.47656,-22.59862 51.47657,-50.53515 0,-27.93655 -22.87314,-50.53321 -51.47657,-50.53321 z m -155.27539,10.89844 c -26.518453,0 -47.652342,20.71623 -47.652342,46.23437 0,25.51815 21.133889,46.23633 47.652342,46.23633 26.51847,0 47.65039,-20.71818 47.65039,-46.23633 0,-25.51814 -21.13192,-46.23437 -47.65039,-46.23437 z m 291.42188,97.43945 a 11.223757,13.587896 0 0 0 -4.38672,25.88672 c 19.909,11.71279 24.67767,44.27165 13.97461,67.37891 -2.98563,6.44585 -7.04635,12.25241 -11.83789,16.98828 a 11.223757,13.587896 0 1 0 14.19531,21.05078 c 6.92172,-6.84128 12.80906,-15.21936 17.22266,-24.74805 16.50318,-35.6294 9.05833,-85.81417 -23.74219,-105.11132 a 11.223757,13.587896 0 0 0 -4.30469,-1.42188 11.223757,13.587896 0 0 0 -1.12109,-0.0234 z m -299.50391,28.19336 174.42773,0 c 21.74021,0 39.47071,17.72856 39.47071,39.46875 0,21.74022 -17.73049,39.47069 -39.47071,39.47071 l -174.42773,0 c -21.7402,0 -39.468749,-17.73051 -39.468749,-39.47071 0,-21.7402 17.728549,-39.46875 39.468749,-39.46875 z m 236.06641,9.21485 a 6.050605,6.050605 0 0 1 0.60351,0.01 6.050605,6.050605 0 0 1 2.32031,0.63281 c 17.68244,8.5929 21.69747,30.93914 12.80079,46.80469 -2.37933,4.24307 -5.55374,7.97511 -9.28516,11.02149 a 6.050605,6.050605 0 1 1 -7.65234,-9.37305 c 2.58309,-2.10887 4.77328,-4.69611 6.38281,-7.56641 5.7699,-10.28952 3.19756,-24.78826 -7.53516,-30.0039 a 6.050605,6.050605 0 0 1 2.36524,-11.52539 z m -236.06641,5.30468 c -13.947277,0 -24.949218,11.00196 -24.949218,24.94922 0,13.94729 11.001941,24.95117 24.949218,24.95117 l 5.30664,0.10547 0,0.0137 36.09766,0 0,-50.01953 -35.50196,0 -5.90234,0 z m 57.30859,0 0,50.01758 35.625,0 19.47461,0 0,-50.01758 -18.53125,0 -36.56836,0 z m 71.00391,0 0,50.01758 35.625,0 10.49023,0 c 13.94728,0 24.95118,-11.12105 24.95118,-25.06836 0,-13.94728 -11.00389,-24.94922 -24.95118,-24.94922 l -10.01953,0 -36.0957,0 z"
       transform="translate(156.80945,109.41549)"
       id="rect5078"
       inkscape:connector-curvature="0" />
  </g>
</svg>
