<?xml version="1.0" encoding="UTF-8" standalone="no"?>
<!-- Created with Inkscape (http://www.inkscape.org/) -->

<svg
   xmlns:dc="http://purl.org/dc/elements/1.1/"
   xmlns:cc="http://creativecommons.org/ns#"
   xmlns:rdf="http://www.w3.org/1999/02/22-rdf-syntax-ns#"
   xmlns:svg="http://www.w3.org/2000/svg"
   xmlns="http://www.w3.org/2000/svg"
   xmlns:sodipodi="http://sodipodi.sourceforge.net/DTD/sodipodi-0.dtd"
   xmlns:inkscape="http://www.inkscape.org/namespaces/inkscape"
   width="129.82222mm"
   height="129.82222mm"
   viewBox="0 0 459.99999 459.99999"
   id="svg2"
   version="1.1"
   inkscape:version="0.91 r13725"
   sodipodi:docname="speaky-icon-bg-alt.svg"
   inkscape:export-filename="C:\Git\speaky-miniplayer\resources\icons\64x64.png"
   inkscape:export-xdpi="12.5"
   inkscape:export-ydpi="12.5">
  <defs
     id="defs4">
    <filter
       style="color-interpolation-filters:sRGB"
       inkscape:label="Drop Shadow"
       id="filter5481">
      <feFlood
         flood-opacity="0.498039"
         flood-color="rgb(0,0,0)"
         result="flood"
         id="feFlood5483" />
      <feComposite
         in="flood"
         in2="SourceGraphic"
         operator="in"
         result="composite1"
         id="feComposite5485" />
      <feGaussianBlur
         in="composite1"
         stdDeviation="13"
         result="blur"
         id="feGaussianBlur5487" />
      <feOffset
         dx="-1.3"
         dy="0.3"
         result="offset"
         id="feOffset5489" />
      <feComposite
         in="SourceGraphic"
         in2="offset"
         operator="over"
         result="composite2"
         id="feComposite5491" />
    </filter>
    <filter
       style="color-interpolation-filters:sRGB"
       inkscape:label="Drop Shadow"
       id="filter5493">
      <feFlood
         flood-opacity="0.498039"
         flood-color="rgb(0,0,0)"
         result="flood"
         id="feFlood5495" />
      <feComposite
         in="flood"
         in2="SourceGraphic"
         operator="in"
         result="composite1"
         id="feComposite5497" />
      <feGaussianBlur
         in="composite1"
         stdDeviation="13"
         result="blur"
         id="feGaussianBlur5499" />
      <feOffset
         dx="-1.3"
         dy="0.3"
         result="offset"
         id="feOffset5501" />
      <feComposite
         in="SourceGraphic"
         in2="offset"
         operator="over"
         result="composite2"
         id="feComposite5503" />
    </filter>
  </defs>
  <sodipodi:namedview
     id="base"
     pagecolor="#ffffff"
     bordercolor="#666666"
     borderopacity="1.0"
     inkscape:pageopacity="0.0"
     inkscape:pageshadow="2"
     inkscape:zoom="0.98994949"
     inkscape:cx="144.06914"
     inkscape:cy="246.28319"
     inkscape:document-units="px"
     inkscape:current-layer="layer1"
     showgrid="false"
     inkscape:window-width="1190"
     inkscape:window-height="768"
     inkscape:window-x="1216"
     inkscape:window-y="68"
     inkscape:window-maximized="0"
     fit-margin-top="0"
     fit-margin-left="0"
     fit-margin-right="0"
     fit-margin-bottom="0" />
  <metadata
     id="metadata7">
    <rdf:RDF>
      <cc:Work
         rdf:about="">
        <dc:format>image/svg+xml</dc:format>
        <dc:type
           rdf:resource="http://purl.org/dc/dcmitype/StillImage" />
        <dc:title></dc:title>
      </cc:Work>
    </rdf:RDF>
  </metadata>
  <g
     inkscape:label="Layer 1"
     inkscape:groupmode="layer"
     id="layer1"
     transform="translate(-156.80945,-109.41549)">
    <rect
       style="fill:#000000;fill-opacity:1;stroke:none;stroke-width:11;stroke-linecap:square;stroke-miterlimit:4;stroke-dasharray:none;stroke-dashoffset:113.67642975;stroke-opacity:1"
       id="rect4846"
       width="460"
       height="460"
       x="156.80945"
       y="109.41549"
       ry="88.571426" />
    <path
       style="fill:#ffffff;fill-opacity:1;fill-rule:nonzero;stroke:none;stroke-width:1.60099995;stroke-miterlimit:4;stroke-dasharray:none;stroke-opacity:1;filter:url(#filter5493)"
       d="m 355.00309,197.07955 c -4.66622,0 -8.63093,2.88903 -10.48828,6.95899 -0.16086,-9.4e-4 -0.32151,-0.009 -0.48242,-0.008 -1.98556,0.0183 -3.9735,0.22214 -5.93555,0.61915 -12.62647,2.55491 -23.10516,13.64812 -23.16015,26.66796 l -33.44532,0 c -40.20662,0 -72.57422,32.3676 -72.57422,72.57422 l 0,82.12696 c 0,40.20661 32.3676,72.57421 72.57422,72.57421 l 127.49414,0 c 40.20662,0 72.57422,-32.36759 72.57422,-72.57421 l 0,-82.12696 c 0,-40.20662 -32.3676,-72.57422 -72.57422,-72.57422 l -83.72656,0 c 0.13362,-7.87488 6.83023,-14.94325 14.88086,-16.57226 1.42743,-0.28883 2.89407,-0.41233 4.36523,-0.40039 1.85298,4.08232 5.82329,6.98243 10.49805,6.98242 6.47544,0 11.61914,-5.55182 11.61914,-12.125 0,-6.57317 -5.1437,-12.12305 -11.61914,-12.12305 z m 47.20508,60.70798 c 28.55079,0 51.93359,22.95174 51.93359,51.21875 0,28.26701 -23.3828,51.21875 -51.93359,51.21875 -28.55078,0 -51.93359,-22.95174 -51.93359,-51.21875 0,-28.26701 23.38281,-51.21875 51.93359,-51.21875 z m -117.63281,9.28516 c 26.36015,0 48.00586,20.9991 48.00586,46.93359 0,25.93449 -21.64571,46.9336 -48.00586,46.9336 -26.36015,0 -48.00586,-20.99911 -48.00586,-46.9336 0,-25.93449 21.64571,-46.93359 48.00586,-46.93359 z m 117.63281,3.65039 c -21.66925,0 -38.99805,17.11915 -38.99805,38.2832 0,21.16405 17.3288,38.28321 38.99805,38.28321 21.66926,0 38.99805,-17.11916 38.99805,-38.28321 0,-21.16405 -17.32879,-38.2832 -38.99805,-38.2832 z m -117.63281,8.25586 c -20.08974,0 -36.09961,15.69541 -36.09961,35.02734 0,19.33193 16.00987,35.02735 36.09961,35.02735 20.08975,0 36.09961,-15.69542 36.09961,-35.02735 0,-19.33193 -16.00986,-35.02734 -36.09961,-35.02734 z m -6.12305,95.17678 132.14258,0 c 16.46985,0 29.90234,13.43055 29.90234,29.90039 0,16.46986 -13.43249,29.90235 -29.90234,29.90235 l -132.14258,0 c -16.46985,0 -29.90039,-13.4325 -29.90039,-29.90235 0,-16.46985 13.43054,-29.90039 29.90039,-29.90039 z m 0,11 c -10.56612,0 -18.90039,8.33428 -18.90039,18.90039 0,10.56613 8.33427,18.90235 18.90039,18.90235 l 4.02148,0.0801 0,0.01 27.34571,0 0,-37.89258 -26.89453,0 -4.47266,0 z m 43.41602,0 0,37.89258 26.98828,0 14.7539,0 0,-37.89258 -14.03906,0 z m 53.79101,0 0,37.89258 26.98828,0 7.94727,0 c 10.56612,0 18.90234,-8.42605 18.90234,-18.99219 0,-10.56612 -8.33622,-18.90039 -18.90234,-18.90039 l -7.58985,0 z"
       id="rect5078"
       inkscape:connector-curvature="0"
       transform="matrix(1.32,0,0,1.32,-102.16062,-102.05045)"
       sodipodi:nodetypes="cccscsssssssscscssccssssssssssssssssssssssssssscsccccccccccccccccccssscc" />
    <path
       style="color:#000000;font-style:normal;font-variant:normal;font-weight:normal;font-stretch:normal;font-size:medium;line-height:normal;font-family:sans-serif;text-indent:0;text-align:start;text-decoration:none;text-decoration-line:none;text-decoration-style:solid;text-decoration-color:#000000;letter-spacing:normal;word-spacing:normal;text-transform:none;direction:ltr;block-progression:tb;writing-mode:lr-tb;baseline-shift:baseline;text-anchor:start;white-space:normal;clip-rule:nonzero;display:inline;overflow:visible;visibility:visible;opacity:1;isolation:auto;mix-blend-mode:normal;color-interpolation:sRGB;color-interpolation-filters:linearRGB;solid-color:#000000;solid-opacity:1;fill:#000000;fill-opacity:1;fill-rule:evenodd;stroke:none;stroke-width:11;stroke-linecap:round;stroke-linejoin:miter;stroke-miterlimit:4;stroke-dasharray:none;stroke-dashoffset:0;stroke-opacity:1;color-rendering:auto;image-rendering:auto;shape-rendering:auto;text-rendering:auto;enable-background:accumulate"
       d="m 502.06809,401.05974 a 6.050605,6.050605 0 0 0 -2.96972,11.51677 c 10.73272,5.21564 13.30423,19.71444 7.53433,30.00396 -1.60953,2.8703 -3.79946,5.45576 -6.38255,7.56463 a 6.050605,6.050605 0 1 0 7.65267,9.37341 c 3.73142,-3.04638 6.90542,-6.77717 9.28475,-11.02024 8.89668,-15.86555 4.88327,-38.21275 -12.79915,-46.80565 a 6.050605,6.050605 0 0 0 -2.32033,-0.63288 z"
       id="path4895"
       inkscape:connector-curvature="0" />
    <path
       style="color:#000000;font-style:normal;font-variant:normal;font-weight:normal;font-stretch:normal;font-size:medium;line-height:normal;font-family:sans-serif;text-indent:0;text-align:start;text-decoration:none;text-decoration-line:none;text-decoration-style:solid;text-decoration-color:#000000;letter-spacing:normal;word-spacing:normal;text-transform:none;direction:ltr;block-progression:tb;writing-mode:lr-tb;baseline-shift:baseline;text-anchor:start;white-space:normal;clip-rule:nonzero;display:inline;overflow:visible;visibility:visible;opacity:1;isolation:auto;mix-blend-mode:normal;color-interpolation:sRGB;color-interpolation-filters:linearRGB;solid-color:#000000;solid-opacity:1;fill:#ffffff;fill-opacity:1;fill-rule:evenodd;stroke:none;stroke-width:11;stroke-linecap:round;stroke-linejoin:miter;stroke-miterlimit:4;stroke-dasharray:none;stroke-dashoffset:0;stroke-opacity:1;color-rendering:auto;image-rendering:auto;shape-rendering:auto;text-rendering:auto;enable-background:accumulate"
       d="m 533.84843,389.10903 a 8.7128712,8.7128712 0 0 0 -4.27639,16.58413 c 15.45512,7.51053 19.15811,28.3888 10.84943,43.20571 -2.31771,4.13323 -5.47121,7.85631 -9.19086,10.89305 a 8.7128712,8.7128712 0 1 0 11.01984,13.49772 c 5.37325,-4.38678 9.94381,-9.75912 13.37004,-15.86915 12.81123,-22.84639 7.03191,-55.02636 -18.43077,-67.40013 a 8.7128712,8.7128712 0 0 0 -3.34129,-0.91133 z"
       id="path4895-3"
       inkscape:connector-curvature="0" />
    <path
       style="color:#000000;font-style:normal;font-variant:normal;font-weight:normal;font-stretch:normal;font-size:medium;line-height:normal;font-family:sans-serif;text-indent:0;text-align:start;text-decoration:none;text-decoration-line:none;text-decoration-style:solid;text-decoration-color:#000000;letter-spacing:normal;word-spacing:normal;text-transform:none;direction:ltr;block-progression:tb;writing-mode:lr-tb;baseline-shift:baseline;text-anchor:start;white-space:normal;clip-rule:nonzero;display:inline;overflow:visible;visibility:visible;opacity:1;isolation:auto;mix-blend-mode:normal;color-interpolation:sRGB;color-interpolation-filters:linearRGB;solid-color:#000000;solid-opacity:1;fill:#ffffff;fill-opacity:1;fill-rule:evenodd;stroke:none;stroke-width:11;stroke-linecap:round;stroke-linejoin:miter;stroke-miterlimit:4;stroke-dasharray:none;stroke-dashoffset:0;stroke-opacity:1;color-rendering:auto;image-rendering:auto;shape-rendering:auto;text-rendering:auto;enable-background:accumulate"
       d="m 570.02281,363.66517 a 11.223757,13.587896 0 0 0 -5.50876,25.86332 c 19.909,11.71279 24.67911,44.27289 13.97605,67.38015 -2.98563,6.44585 -7.04796,12.25206 -11.8395,16.98793 a 11.223757,13.587896 0 1 0 14.19554,21.04996 c 6.92172,-6.84128 12.80943,-15.21956 17.22303,-24.74825 16.50318,-35.6294 9.05837,-85.81471 -23.74215,-105.11187 a 11.223757,13.587896 0 0 0 -4.30421,-1.42124 z"
       id="path4895-3-5"
       inkscape:connector-curvature="0" />
  </g>
</svg>
